<?xml version="1.0" encoding="UTF-8"?>
<svg width="20px" height="20px" viewBox="0 0 20 20" version="1.1" xmlns="http://www.w3.org/2000/svg" xmlns:xlink="http://www.w3.org/1999/xlink">
    <title>编组</title>
    <g id="页面-1" stroke="none" stroke-width="1" fill="none" fill-rule="evenodd">
        <g id="-浏览器插件" transform="translate(-1382.000000, -164.000000)" fill="#FF7828">
            <g id="编组-2" transform="translate(1200.000000, 80.000000)">
                <g id="编组-3备份-2" transform="translate(152.000000, 66.000000)">
                    <g id="编组-8" transform="translate(30.000000, 16.000000)">
                        <g id="编组" transform="translate(0.000000, 2.000000)">
                            <circle id="椭圆形" fill-opacity="0.1" cx="10" cy="10" r="10"></circle>
                            <g transform="translate(10.416667, 10.416667) rotate(-30.000000) translate(-10.416667, -10.416667) translate(3.333333, 4.166667)" fill-rule="nonzero" id="形状">
                                <path d="M6.10237805,0.569177252 L5.12554845,0.569177252 C5.12554845,0.569177252 6.00078777,2.96810086 6.17270978,3.501195 L8.63432038,3.51106711 L6.10237805,0.569177252 Z M1.0845688,4.45323737 L0.457531755,2.42954438 L1.28835584,2.42954438 C1.28835584,2.42954438 1.84485122,3.22610438 2.15836974,3.7643206 C2.57378178,4.49629466 3.63974476,4.2487152 4.4157031,4.30253683 L10.8271569,4.30253683 C11.2817587,4.30253683 11.7285226,4.43170872 12.1282587,4.61470223 C12.8571893,4.96992494 13.350981,5.43279089 13.6331477,5.83107089 C13.7585551,6.01406441 13.7977449,6.1432363 13.7899069,6.25087954 C13.7350412,6.88597468 12.6847541,7.20890442 12.1125828,7.20890442 L9.67497631,7.20890442 L4.38435125,12.2358439 L3.40460586,12.2358439 C3.40460586,12.2358439 4.79976329,9.67393471 5.06625403,9.14648281 C5.30923089,8.66208821 5.69329108,8.02699307 5.70112904,7.20890442 L3.63190679,7.00438225 C3.1851429,6.96132496 2.75405493,6.75680279 2.3778327,6.41234441 L2.08782807,6.15400062 C1.6567401,5.75572062 1.30403177,5.15291845 1.0845688,4.45323737 Z"></path>
                            </g>
                        </g>
                    </g>
                </g>
            </g>
        </g>
    </g>
</svg>