<?xml version="1.0" encoding="UTF-8"?>
<svg width="116px" height="134px" viewBox="0 0 116 134" version="1.1" xmlns="http://www.w3.org/2000/svg" xmlns:xlink="http://www.w3.org/1999/xlink">
    <g id="page-1" stroke="none" stroke-width="1" fill="none" fill-rule="evenodd">
        <g id="path-warp" transform="translate(-209.000000, -247.000000)" stroke="#FF7828" stroke-width="2">
            <path d="M313,248 C316.037566,248 318.787566,249.231217 320.778175,251.221825 C322.768783,253.212434 324,255.962434 324,259 L324,259 L324,369 C324,372.037566 322.768783,374.787566 320.778175,376.778175 C318.787566,378.768783 316.037566,380 313,380 L313,380 L221,380 C217.962434,380 215.212434,378.768783 213.221825,376.778175 C211.231217,374.787566 210,372.037566 210,369 L210,369 L210,259 C210,255.962434 211.231217,253.212434 213.221825,251.221825 C215.212434,249.231217 217.962434,248 221,248 L221,248 Z" id="path"></path>
        </g>
    </g>
</svg>
