<?xml version="1.0" encoding="UTF-8"?>
<svg width="124px" height="18px" viewBox="0 0 124 18" version="1.1" xmlns="http://www.w3.org/2000/svg" xmlns:xlink="http://www.w3.org/1999/xlink">
    <title>GASNOW</title>
    <g id="页面-1" stroke="none" stroke-width="1" fill="none" fill-rule="evenodd" fill-opacity="0.85">
        <g id="-浏览器插件" transform="translate(-1418.000000, -104.000000)" fill="#000000" fill-rule="nonzero">
            <g id="编组-2" transform="translate(1200.000000, 80.000000)">
                <path d="M226.787214,42 C229.843636,42 232.207587,40.7569061 233.926825,39.2403315 L233.926825,31.6823204 L226.667822,31.6823204 L226.667822,34.9889503 L230.368958,34.9889503 L230.368958,37.4751381 C229.437705,38.1712707 228.24379,38.519337 226.906605,38.519337 C223.945696,38.519337 221.844406,36.1823204 221.844406,33 L221.844406,32.9502762 C221.844406,29.9917127 223.969574,27.5303867 226.643944,27.5303867 C228.578086,27.5303867 229.724244,28.1767956 231.013672,29.2955801 L233.329867,26.3867403 C231.586751,24.8453039 229.772001,24 226.763335,24 C221.701136,24 218,28.0524862 218,33 L218,33.0497238 C218,38.1961326 221.581745,42 226.787214,42 Z M239.777008,41.7016575 L241.305219,37.7983425 L248.373195,37.7983425 L249.901406,41.7016575 L253.745812,41.7016575 L246.582322,24.1740331 L243.191604,24.1740331 L236.028115,41.7016575 L239.777008,41.7016575 Z M247.059888,34.4171271 L242.618525,34.4171271 L244.839207,28.7734807 L247.059888,34.4171271 Z M262.270364,41.9502762 C265.875987,41.9502762 268.407086,40.0110497 268.407086,36.5552486 L268.407086,36.5055249 C268.407086,33.4723757 266.496823,32.2044199 263.106104,31.2845304 C260.21683,30.5138122 259.500481,30.140884 259.500481,28.9972376 L259.500481,28.9475138 C259.500481,28.1022099 260.240709,27.4309392 261.649528,27.4309392 C263.058348,27.4309392 264.514924,28.0773481 265.995378,29.1464088 L267.905642,26.2624309 C266.210283,24.8453039 264.132871,24.0497238 261.697285,24.0497238 C258.282688,24.0497238 255.847102,26.1381215 255.847102,29.2955801 L255.847102,29.3453039 C255.847102,32.801105 258.020027,33.7707182 261.386867,34.6657459 C264.180628,35.4116022 264.753707,35.9088398 264.753707,36.878453 L264.753707,36.9281768 C264.753707,37.9475138 263.846332,38.5690608 262.341999,38.5690608 C260.431735,38.5690608 258.855767,37.7486188 257.351435,36.4558011 L255.17851,39.1657459 C257.184287,41.0303867 259.739264,41.9502762 262.270364,41.9502762 Z M282.399769,41.7016575 L282.399769,30.6381215 L290.494512,41.7016575 L293.622569,41.7016575 L293.622569,24.2983425 L289.993068,24.2983425 L289.993068,35.0138122 L282.160986,24.2983425 L278.770268,24.2983425 L278.770268,41.7016575 L282.399769,41.7016575 Z M305.752744,42 C310.910456,42 314.659349,37.9475138 314.659349,33 L314.659349,32.9502762 C314.659349,28.0027624 310.958213,24 305.800501,24 C300.642788,24 296.893896,28.0524862 296.893896,33 L296.893896,33.0497238 C296.893896,37.9972376 300.595032,42 305.752744,42 Z M305.800501,38.4696133 C302.839592,38.4696133 300.738302,35.9834254 300.738302,33 L300.738302,32.9502762 C300.738302,29.9668508 302.791835,27.5303867 305.752744,27.5303867 C308.713653,27.5303867 310.814943,30.0165746 310.814943,33 L310.814943,33.0497238 C310.814943,36.0331492 308.76141,38.4696133 305.800501,38.4696133 Z M325.547853,41.8259669 L329.320624,30.4392265 L333.093395,41.8259669 L336.293087,41.8259669 L342,24.2983425 L338.155594,24.2983425 L334.693241,36.0828729 L330.944348,24.2486188 L327.792413,24.2486188 L324.04352,36.0828729 L320.581167,24.2983425 L316.641248,24.2983425 L322.348161,41.8259669 L325.547853,41.8259669 Z" id="GASNOW"></path>
            </g>
        </g>
    </g>
</svg>