<?xml version="1.0" encoding="UTF-8"?>
<svg width="32px" height="32px" viewBox="0 0 32 32" version="1.1" xmlns="http://www.w3.org/2000/svg" xmlns:xlink="http://www.w3.org/1999/xlink">
    <title>icon_gasnow</title>
    <defs>
        <polygon id="path-1" points="5.14061153 0.110984863 5.0717995 11.091212 0.0968220551 8.23241653"></polygon>
        <linearGradient x1="-0.00177401723%" y1="49.9995327%" x2="100.001143%" y2="49.9995327%" id="linearGradient-3">
            <stop stop-color="#F45654" offset="0%"></stop>
            <stop stop-color="#FBCD31" offset="100%"></stop>
        </linearGradient>
        <polygon id="path-4" points="4.85389474 0.203887923 10.0249424 2.54288352 5.12980451 5.271781 0.0968220551 2.41298551"></polygon>
        <linearGradient x1="-0.000901255137%" y1="49.9994537%" x2="99.9999449%" y2="49.9994537%" id="linearGradient-6">
            <stop stop-color="#F45654" offset="0%"></stop>
            <stop stop-color="#FBCD31" offset="100%"></stop>
        </linearGradient>
        <linearGradient x1="22.0768232%" y1="16.1084932%" x2="86.4337907%" y2="58.5148955%" id="linearGradient-7">
            <stop stop-color="#F45654" offset="0%"></stop>
            <stop stop-color="#F9A831" offset="100%"></stop>
        </linearGradient>
        <linearGradient x1="-0.000823727141%" y1="49.9999246%" x2="100.000022%" y2="49.9999246%" id="linearGradient-8">
            <stop stop-color="#F45654" offset="0%"></stop>
            <stop stop-color="#F9A831" offset="100%"></stop>
        </linearGradient>
    </defs>
    <g id="页面-1" stroke="none" stroke-width="1" fill="none" fill-rule="evenodd">
        <g id="-浏览器插件" transform="translate(-1267.000000, -732.000000)">
            <g id="编组-2备份" transform="translate(1201.000000, 434.000000)">
                <g id="编组-3备份-3" transform="translate(32.000000, 258.000000)">
                    <g id="gasnow" transform="translate(12.000000, 40.000000)">
                        <g id="icon_gasnow" transform="translate(22.000000, 0.000000)">
                            <circle id="椭圆形" stroke="#FF7828" cx="16" cy="16" r="15.5"></circle>
                            <g id="编组" transform="translate(10.000000, 7.000000)">
                                <g transform="translate(0.632247, 0.423096)">
                                    <g>
                                        <mask id="mask-2" fill="white">
                                            <use xlink:href="#path-1"></use>
                                        </mask>
                                        <g id="Clip-2"></g>
                                        <polygon id="Fill-1" fill-opacity="0.4" fill="url(#linearGradient-3)" mask="url(#mask-2)" points="5.14061153 0.110984863 0.0968220551 8.23241653 5.0717995 11.091212"></polygon>
                                    </g>
                                    <g transform="translate(0.000000, 5.819431)">
                                        <mask id="mask-5" fill="white">
                                            <use xlink:href="#path-4"></use>
                                        </mask>
                                        <g id="Clip-4"></g>
                                        <polygon id="Fill-3" fill-opacity="0.4" fill="url(#linearGradient-6)" mask="url(#mask-5)" points="0.0968220551 2.41298551 4.85389474 0.203887923 10.0249424 2.54288352 5.12980451 5.271781"></polygon>
                                    </g>
                                </g>
                                <path d="M11.047216,10.7987868 L5.87333037,13.6684434 L0.699444712,10.7987868 C0.562037042,10.7225209 0.387626677,10.7478742 0.279864441,10.8595933 L0.279864441,10.8595933 C0.222521083,10.9193692 0.192659258,10.9952228 0.191144528,11.0719009 L0.191144528,11.0719009 L0.191144528,11.0838561 C0.192442868,11.1463116 0.212783531,11.2087672 0.252815687,11.2629777 L0.252815687,11.2629777 L5.5970003,18.4797871 C5.66040258,18.5653285 5.76340423,18.6162411 5.87333037,18.6162411 L5.87333037,18.6162411 C5.98325651,18.6162411 6.08647455,18.5653285 6.14966044,18.4797871 L6.14966044,18.4797871 L11.4936287,11.2629777 C11.5347428,11.2075304 11.5550834,11.1430136 11.5555162,11.0789091 L11.5555162,11.0789091 L11.5555162,11.0751989 C11.554867,10.9974902 11.5250052,10.9201937 11.4665799,10.8595933 L11.4665799,10.8595933 C11.4005809,10.7911602 11.3094807,10.7550161 11.2170822,10.7550161 L11.2170822,10.7550161 C11.1588733,10.7550161 11.1002316,10.769311 11.047216,10.7987868" id="Fill-5" fill="url(#linearGradient-7)"></path>
                                <path d="M5.87289759,0.0846615873 C5.86251087,0.0846615873 5.85190776,0.0848660839 5.84173743,0.0856840702 L5.84173743,0.0856840702 C5.83048514,0.0867065532 5.81923286,0.0885470225 5.80819697,0.0905919883 L5.80819697,0.0905919883 C5.79781025,0.0924324576 5.78742353,0.0946819201 5.77746959,0.0977493689 L5.77746959,0.0977493689 C5.76686647,0.100612321 5.75669614,0.104088763 5.74652581,0.107974198 L5.74652581,0.107974198 C5.73548992,0.112268627 5.7251032,0.116972048 5.71450009,0.122084463 L5.71450009,0.122084463 C5.70952312,0.124538422 5.70476254,0.125765401 5.69978556,0.128628354 L5.69978556,0.128628354 C5.69567415,0.131082313 5.69221191,0.134354258 5.68788411,0.136808217 L5.68788411,0.136808217 C5.67814656,0.143147611 5.66840901,0.149895999 5.65910424,0.157257876 L5.65910424,0.157257876 C5.65066503,0.163801767 5.6426586,0.170345658 5.63508495,0.177503038 L5.63508495,0.177503038 C5.62751129,0.184660419 5.62037042,0.192431289 5.61344594,0.200406656 L5.61344594,0.200406656 C5.60587229,0.209200009 5.59829864,0.218197859 5.59202333,0.227809199 L5.59202333,0.227809199 C5.58921026,0.231694634 5.58553163,0.234762083 5.58293495,0.239056511 L5.58293495,0.239056511 L0.239183115,8.67719921 C0.238966725,8.6778127 0.238750335,8.67842619 0.238101165,8.67903968 L0.238101165,8.67903968 C0.237884775,8.67965317 0.237451995,8.67985766 0.237019215,8.68067565 L0.237019215,8.68067565 C0.231825854,8.68906001 0.228796393,8.69826236 0.224468593,8.70705571 L0.224468593,8.70705571 C0.219275232,8.71728054 0.213432701,8.72730087 0.209537681,8.7377302 L0.209537681,8.7377302 C0.20585905,8.74775053 0.20434432,8.75756637 0.20174764,8.7675867 L0.20174764,8.7675867 C0.199367349,8.77781153 0.195688719,8.78844535 0.194173988,8.79887468 L0.194173988,8.79887468 C0.192659258,8.80909951 0.193308428,8.81932434 0.192875648,8.82954917 L0.192875648,8.82954917 C0.192442868,8.83997849 0.191360918,8.85020332 0.192010088,8.86042815 L0.192010088,8.86042815 C0.192442868,8.87085748 0.195039549,8.88067331 0.196770669,8.89110264 L0.196770669,8.89110264 C0.198285399,8.90091848 0.199367349,8.9113478 0.20196403,8.92095914 L0.20196403,8.92095914 C0.2047771,8.93097947 0.209321291,8.94038632 0.212999921,8.95020215 L0.212999921,8.95020215 C0.216678552,8.959609 0.219491622,8.96942483 0.224035813,8.97862718 L0.224035813,8.97862718 C0.228796393,8.98782953 0.235071704,8.99641838 0.240697845,9.00521174 L0.240697845,9.00521174 C0.246540376,9.01420959 0.251300957,9.02341193 0.257792658,9.0315918 L0.257792658,9.0315918 C0.264067969,9.03997616 0.27229079,9.04713354 0.279864441,9.05490441 L0.279864441,9.05490441 C0.287221702,9.06287977 0.293929793,9.07105964 0.302369004,9.07821702 L0.302369004,9.07821702 C0.310591825,9.0851699 0.320112987,9.09069131 0.329201368,9.0970307 L0.329201368,9.0970307 C0.33828975,9.1033701 0.345863401,9.11032298 0.355600952,9.11563989 L0.355600952,9.11563989 C0.356466512,9.11625338 0.357115682,9.11625338 0.357981242,9.11666238 L0.357981242,9.11666238 L0.359279583,9.11768486 L5.70303142,12.0583458 C5.70368059,12.0585503 5.70432976,12.0589593 5.70497893,12.0591638 L5.70497893,12.0591638 C5.71363453,12.0638672 5.72250652,12.0677526 5.7315949,12.0716381 L5.7315949,12.0716381 C5.73635548,12.073683 5.74068328,12.0759325 5.74544386,12.0779775 L5.74544386,12.0779775 C5.75215195,12.0804314 5.75907643,12.0822719 5.76578452,12.0845214 L5.76578452,12.0845214 C5.77314179,12.0865663 5.78006627,12.0894293 5.78742353,12.0912697 L5.78742353,12.0912697 C5.78785631,12.0912697 5.7880727,12.0912697 5.78828909,12.0912697 L5.78828909,12.0912697 C5.8162034,12.0982226 5.8445505,12.1016991 5.87311398,12.1016991 L5.87311398,12.1016991 L5.87333037,12.1016991 L5.87354676,12.1016991 C5.91011668,12.1016991 5.94711937,12.0955642 5.98260734,12.0839079 L5.98260734,12.0839079 C5.98866626,12.0818629 5.99515796,12.0802269 6.00100049,12.0779775 L6.00100049,12.0779775 C6.00619385,12.0759325 6.01138721,12.073274 6.01658057,12.0710246 L6.01658057,12.0710246 C6.02501978,12.0673436 6.0332426,12.0636627 6.04168181,12.0591638 L6.04168181,12.0591638 C6.04233098,12.0589593 6.04276376,12.0587548 6.04341293,12.0583458 L6.04341293,12.0583458 L11.3875975,9.11768486 C11.3886795,9.11686687 11.3899778,9.11584439 11.3910598,9.1150264 L11.3910598,9.1150264 C11.408371,9.10521057 11.425033,9.09416775 11.4401803,9.08148896 L11.4401803,9.08148896 C11.4434262,9.07883051 11.4462392,9.07555856 11.4494851,9.07290011 L11.4494851,9.07290011 C11.4607374,9.06287977 11.4715569,9.05183696 11.481078,9.04018065 L11.481078,9.04018065 C11.4851895,9.03547723 11.4890845,9.03097831 11.4925467,9.02607039 L11.4925467,9.02607039 C11.5009859,9.01482307 11.5089924,9.00255328 11.5157004,8.98966999 L11.5157004,8.98966999 C11.5180807,8.98558006 11.5206774,8.98169463 11.5228413,8.9776047 L11.5228413,8.9776047 C11.5237069,8.97637772 11.524356,8.97555973 11.5247888,8.97433275 L11.5247888,8.97433275 C11.5280347,8.96758436 11.5295494,8.96063148 11.5323625,8.95388309 L11.5323625,8.95388309 C11.5369067,8.94202229 11.5421,8.93016149 11.5451295,8.91809619 L11.5451295,8.91809619 C11.5477262,8.90807586 11.5488081,8.89805552 11.5503229,8.88783069 L11.5503229,8.88783069 C11.5518376,8.87760586 11.5540015,8.86738104 11.5546507,8.85674721 L11.5546507,8.85674721 C11.5550834,8.84631789 11.5542179,8.83609306 11.5537851,8.82566373 L11.5537851,8.82566373 C11.5531359,8.8154389 11.5529195,8.80500958 11.5514048,8.79478475 L11.5514048,8.79478475 C11.5498901,8.78435542 11.5466442,8.77433509 11.5440475,8.76431476 L11.5440475,8.76431476 C11.5414509,8.75429442 11.539287,8.74427409 11.5356083,8.73466275 L11.5356083,8.73466275 C11.5312805,8.72280195 11.5250052,8.71175913 11.5191627,8.70030732 L11.5191627,8.70030732 C11.5154841,8.69396793 11.5133202,8.68701504 11.5094251,8.68067565 L11.5094251,8.68067565 C11.5089924,8.67965317 11.5081268,8.67883518 11.5074776,8.6780172 L11.5074776,8.6780172 C11.5001204,8.6659519 11.4908156,8.65511358 11.4817272,8.64407076 L11.4817272,8.64407076 C11.4769666,8.63854935 11.4728552,8.63220996 11.4678782,8.62689305 L11.4678782,8.62689305 C11.460521,8.61912218 11.4518654,8.61278278 11.4434262,8.6058299 L11.4434262,8.6058299 C11.4352034,8.59867252 11.4274133,8.59090165 11.4183249,8.58456225 L11.4183249,8.58456225 C11.4124824,8.58047232 11.4055579,8.57740487 11.3990662,8.57351944 L11.3990662,8.57351944 C11.3865156,8.56595306 11.3741814,8.55838669 11.3609816,8.55225179 L11.3609816,8.55225179 C11.3598996,8.5518428 11.3590341,8.55122931 11.3579521,8.55082032 L11.3579521,8.55082032 L6.01398389,6.24225834 C5.84390133,6.16884406 5.64309138,6.23959988 5.56562374,6.4001297 L5.56562374,6.4001297 C5.48815611,6.56065953 5.56281067,6.75022786 5.73267685,6.82364214 L5.73267685,6.82364214 L10.4828708,8.8755609 L5.87333037,11.4121366 L0.995249886,8.72791436 L5.87311398,1.02616388 L8.08570205,4.5304174 C8.14910433,4.63062073 8.26119437,4.6862438 8.37653026,4.6862438 L8.37653026,4.6862438 C8.43538835,4.6862438 8.49511199,4.67152005 8.54942589,4.64105006 L8.54942589,4.64105006 C8.7099873,4.55045807 8.76235368,4.35434584 8.6664929,4.20281387 L8.6664929,4.20281387 L6.16372579,0.239261008 C6.1613455,0.235171076 6.15766687,0.232103627 6.15507019,0.228218192 L6.15507019,0.228218192 C6.1483621,0.218606852 6.14122123,0.209609002 6.13343119,0.200611153 L6.13343119,0.200611153 C6.12650671,0.192635786 6.11936584,0.185069412 6.11200857,0.177912031 L6.11200857,0.177912031 C6.10443492,0.170754651 6.09642849,0.16421076 6.08777289,0.157462373 L6.08777289,0.157462373 C6.07825173,0.150100495 6.06894696,0.143352108 6.05877663,0.137012714 L6.05877663,0.137012714 C6.05466522,0.134558755 6.05141937,0.131082313 6.04709157,0.12883285 L6.04709157,0.12883285 C6.04233098,0.126174395 6.0375704,0.124742918 6.03280982,0.122493456 L6.03280982,0.122493456 C6.02220671,0.116972048 6.01117082,0.112268627 5.99970215,0.107769702 L5.99970215,0.107769702 C5.9899646,0.104088763 5.98022705,0.100816818 5.97048949,0.0979538655 L5.97048949,0.0979538655 C5.95966999,0.0948864167 5.94885049,0.0924324576 5.9378146,0.0905919883 L5.9378146,0.0905919883 C5.92742788,0.0885470225 5.91682477,0.0867065532 5.90622165,0.0858885668 L5.90622165,0.0858885668 C5.89518576,0.0848660839 5.88393348,0.0846615873 5.87289759,0.0846615873 Z" id="Fill-7" fill="url(#linearGradient-8)"></path>
                            </g>
                        </g>
                    </g>
                </g>
            </g>
        </g>
    </g>
</svg>