<?xml version="1.0" encoding="UTF-8"?>
<svg width="32px" height="32px" viewBox="0 0 32 32" version="1.1" xmlns="http://www.w3.org/2000/svg" xmlns:xlink="http://www.w3.org/1999/xlink">
    <title>icon_contact us</title>
    <g id="页面-1" stroke="none" stroke-width="1" fill="none" fill-rule="evenodd">
        <g id="-浏览器插件" transform="translate(-1399.000000, -732.000000)">
            <g id="编组-2备份" transform="translate(1201.000000, 434.000000)">
                <g id="编组-3备份-3" transform="translate(32.000000, 258.000000)">
                    <g id="contacct" transform="translate(146.000000, 40.000000)">
                        <g id="icon_contact-us" transform="translate(20.000000, 0.000000)">
                            <circle id="椭圆形" stroke="#1DA1F1" cx="16" cy="16" r="15.5"></circle>
                            <path d="M24.6153846,10.9130178 C23.9902194,11.1863905 23.3098925,11.3831361 22.6091354,11.4597633 C23.3323657,11.0227811 23.8819391,10.3331361 24.1414031,9.51301775 C23.4733344,9.91686391 22.7174156,10.2130178 21.9308515,10.3662722 C21.2934281,9.67662722 20.3883686,9.25 19.385244,9.25 C17.4545866,9.25 15.9018886,10.8363905 15.9018886,12.7831361 C15.9018886,13.0565089 15.934577,13.3298817 15.9876956,13.5928994 C13.0968171,13.439645 10.5185213,12.039645 8.80442439,9.89615385 C8.50205689,10.4221893 8.3304429,11.0227811 8.3304429,11.6792899 C8.3304429,12.9053254 8.94539303,13.9863905 9.88314089,14.6221893 C9.31109427,14.5994083 8.77173602,14.4357988 8.30796964,14.1727811 L8.30796964,14.2162722 C8.30796964,15.9331361 9.50518151,17.3559172 11.100783,17.6831361 C10.8086306,17.7597633 10.496048,17.8032544 10.1834654,17.8032544 C9.95668975,17.8032544 9.74217226,17.7804734 9.52561175,17.7494083 C9.96690487,19.1494083 11.2519668,20.1662722 12.7821915,20.1994083 C11.5849796,21.15 10.0854002,21.7091716 8.45711037,21.7091716 C8.16495798,21.7091716 7.89527886,21.6988166 7.61538462,21.6656805 C9.15991051,22.6701183 10.9925028,23.25 12.9660636,23.25 C19.3729859,23.25 22.8788145,17.8695266 22.8788145,13.1994083 C22.8788145,13.0461538 22.8788145,12.8928994 22.8685994,12.739645 C23.5468832,12.2363905 24.1414031,11.6130178 24.6153846,10.9130178 Z" id="路径" fill="#1DA1F1" fill-rule="nonzero"></path>
                        </g>
                    </g>
                </g>
            </g>
        </g>
    </g>
</svg>