<?xml version="1.0" encoding="UTF-8"?>
<svg width="20px" height="20px" viewBox="0 0 20 20" version="1.1" xmlns="http://www.w3.org/2000/svg" xmlns:xlink="http://www.w3.org/1999/xlink">
    <title>返回</title>
    <g id="页面-1" stroke="none" stroke-width="1" fill="none" fill-rule="evenodd">
        <g id="-浏览器插件" transform="translate(-569.000000, -457.000000)">
            <g id="编组-2备份-3" transform="translate(553.000000, 434.000000)">
                <g id="返回" transform="translate(16.000000, 23.000000)">
                    <rect id="矩形" stroke="#979797" fill="#D8D8D8" opacity="0" x="0.5" y="0.5" width="19" height="19"></rect>
                    <path d="M9.93464744,0.00815170272 C10.2095192,0.00815170272 10.484391,0.118237179 10.704562,0.327467949 C11.1339637,0.756869651 11.1339637,1.43926282 10.7155021,1.86866452 L2.6355524,10.0271517 L10.8037073,18.1148184 C11.233109,18.5435363 11.233109,19.2259295 10.8146474,19.6553312 C10.3915019,20.0819371 9.70329641,20.0868245 9.27413462,19.6662714 L0.419838323,10.8998929 C0.387078537,10.874403 0.355428886,10.8467861 0.32507478,10.8170406 C-0.101983633,10.3938172 -0.106872572,9.70508739 0.314134615,9.27584401 L9.16404914,0.338408113 C9.365165,0.127892604 9.64350458,0.00860421555 9.93464744,0.00815170272 Z" id="形状结合" fill-opacity="0.45" fill="#FFFFFF" fill-rule="nonzero"></path>
                </g>
            </g>
        </g>
    </g>
</svg>