<?xml version="1.0" encoding="UTF-8"?>
<svg width="32px" height="32px" viewBox="0 0 32 32" version="1.1" xmlns="http://www.w3.org/2000/svg" xmlns:xlink="http://www.w3.org/1999/xlink">
    <title>icon_Discord</title>
    <g id="页面-1" stroke="none" stroke-width="1" fill="none" fill-rule="evenodd">
        <g id="-浏览器插件" transform="translate(-1531.000000, -732.000000)">
            <g id="编组-2备份" transform="translate(1201.000000, 434.000000)">
                <g id="编组-3备份-3" transform="translate(32.000000, 258.000000)">
                    <g id="Discord" transform="translate(289.000000, 40.000000)">
                        <g id="icon_Discord" transform="translate(9.000000, 0.000000)">
                            <circle id="椭圆形" stroke="#8596F6" cx="16" cy="16" r="15.5"></circle>
                            <g id="编组" transform="translate(8.000000, 7.000000)" fill="#8596F6" fill-rule="nonzero">
                                <path d="M9.534375,7.5375 C9.028125,7.5375 8.60625,7.9875 8.60625,8.55 C8.60625,9.1125 9.028125,9.5625 9.534375,9.5625 C10.040625,9.5625 10.4625,9.1125 10.4625,8.55 C10.4625,7.9875 10.040625,7.5375 9.534375,7.5375 L9.534375,7.5375 Z M6.24375,7.5375 C5.7375,7.5375 5.315625,7.9875 5.315625,8.55 C5.315625,9.1125 5.7375,9.5625 6.24375,9.5625 C6.75,9.5625 7.171875,9.1125 7.171875,8.55 C7.171875,7.9875 6.75,7.5375 6.24375,7.5375 L6.24375,7.5375 Z" id="形状"></path>
                                <path d="M13.89375,0 L1.85625,0 C0.815625,0 0,0.815625 0,1.85625 L0,14.034375 C0,15.046875 0.815625,15.890625 1.85625,15.890625 L12.065625,15.890625 L11.5875,14.23125 L12.740625,15.3 L13.8375,16.3125 L15.75,18 L15.75,1.85625 C15.75,0.815625 14.934375,0 13.89375,0 Z M10.434375,11.75625 C10.434375,11.75625 10.096875,11.3625 9.84375,11.025 C11.025,10.6875 11.475,9.95625 11.475,9.95625 C11.109375,10.209375 10.74375,10.378125 10.434375,10.490625 C9.984375,10.6875 9.5625,10.8 9.140625,10.884375 C8.26875,11.053125 7.48125,10.996875 6.80625,10.884375 C6.3,10.771875 5.85,10.63125 5.484375,10.490625 C5.2875,10.40625 5.0625,10.321875 4.8375,10.18125 C4.809375,10.153125 4.78125,10.153125 4.753125,10.125 C4.725,10.125 4.725,10.096875 4.725,10.096875 C4.55625,10.0125 4.471875,9.95625 4.471875,9.95625 C4.471875,9.95625 4.89375,10.6875 6.046875,11.025 C5.765625,11.3625 5.45625,11.784375 5.45625,11.784375 C3.459375,11.728125 2.7,10.40625 2.7,10.40625 C2.7,7.509375 3.99375,5.146875 3.99375,5.146875 C5.2875,4.1625 6.525,4.190625 6.525,4.190625 L6.609375,4.303125 C4.978125,4.78125 4.21875,5.484375 4.21875,5.484375 C4.21875,5.484375 4.415625,5.371875 4.753125,5.23125 C5.709375,4.809375 6.46875,4.696875 6.80625,4.66875 C6.8625,4.66875 6.91875,4.640625 6.946875,4.640625 C7.509375,4.55625 8.128125,4.55625 8.775,4.6125 C9.61875,4.725 10.546875,4.95 11.475,5.484375 C11.475,5.484375 10.771875,4.809375 9.225,4.33125 L9.3375,4.190625 C9.3375,4.190625 10.575,4.1625 11.86875,5.146875 C11.86875,5.146875 13.1625,7.509375 13.1625,10.40625 C13.190625,10.378125 12.43125,11.7 10.434375,11.75625 L10.434375,11.75625 Z" id="形状"></path>
                            </g>
                        </g>
                    </g>
                </g>
            </g>
        </g>
    </g>
</svg>