<?xml version="1.0" encoding="UTF-8"?>
<svg width="20px" height="20px" viewBox="0 0 20 20" version="1.1" xmlns="http://www.w3.org/2000/svg" xmlns:xlink="http://www.w3.org/1999/xlink">
    <title>编组</title>
    <g id="页面-1" stroke="none" stroke-width="1" fill="none" fill-rule="evenodd">
        <g id="-浏览器插件" transform="translate(-1246.000000, -164.000000)" fill="#00C718">
            <g id="编组-2" transform="translate(1200.000000, 80.000000)">
                <g id="编组-3" transform="translate(16.000000, 66.000000)">
                    <g id="编组-8" transform="translate(30.000000, 16.000000)">
                        <g id="编组" transform="translate(0.000000, 2.000000)">
                            <circle id="椭圆形" fill-opacity="0.100824956" cx="10" cy="10" r="10"></circle>
                            <path d="M7.43418186,12.550729 C7.65658818,12.7728338 7.61603896,13.1595285 7.3543122,13.4201804 C7.00902946,13.7640451 6.07639743,13.9035489 6.07639743,13.9035489 C6.07639743,13.9035489 6.25211072,12.9380356 6.56114491,12.6302706 C6.82287168,12.3696188 7.2099324,12.3280124 7.43356749,12.550729 L7.43418186,12.550729 Z M12.3492386,12.0202474 C12.4327946,13.1197577 12.0776818,13.9830906 11.2064879,14.8513183 L11.0565787,15 L9.53291112,12.7850709 C9.03771915,13.0377686 8.26544085,12.8383026 7.69959493,12.2747806 C7.13313463,11.7106468 6.93284607,10.9409283 7.19764477,10.4367566 L5,8.91812292 L5.14929485,8.76882936 C5.99714214,7.92507599 6.86280651,7.57264529 7.95394912,7.64117347 C10.1657247,5.03465472 12.8702347,4.67855286 14.6537859,5.2120938 L14.7582309,5.2432986 L14.78895,5.3473146 C15.3246911,7.12292902 14.9536044,9.80287084 12.3492386,12.0202474 L12.3492386,12.0202474 Z M11.7489873,9.43881481 C12.4358665,9.45288756 13.037961,8.90710946 13.0785102,8.22121567 C13.1014479,7.8952409 12.9892713,7.57414209 12.7681197,7.3327415 C12.5469681,7.09134091 12.2361573,6.95072296 11.9081123,6.94365437 C11.2200043,6.92896975 10.6179099,7.47597158 10.5779751,8.16125351 C10.5550336,8.48733214 10.6672925,8.8085254 10.8885777,9.04994514 C11.109863,9.29136488 11.4208345,9.43191117 11.7489873,9.43881481 L11.7489873,9.43881481 Z" id="形状" fill-rule="nonzero"></path>
                        </g>
                    </g>
                </g>
            </g>
        </g>
    </g>
</svg>