<?xml version="1.0" encoding="UTF-8"?>
<svg width="20px" height="20px" viewBox="0 0 20 20" version="1.1" xmlns="http://www.w3.org/2000/svg" xmlns:xlink="http://www.w3.org/1999/xlink">
    <title>设置</title>
    <g id="页面-1" stroke="none" stroke-width="1" fill="none" fill-rule="evenodd" fill-opacity="0.45">
        <g id="-浏览器插件" transform="translate(-1077.000000, -103.000000)" fill="#FFFFFF" fill-rule="nonzero">
            <g id="编组-2备份-2" transform="translate(553.000000, 80.000000)">
                <g id="设置" transform="translate(524.000000, 23.000000)">
                    <path d="M18.206885,9.99826698 C18.206885,8.83070905 18.939951,7.84140424 19.9671346,7.44701921 C19.7220365,6.48445237 19.3432487,5.57758962 18.8485963,4.74425629 C17.8414661,5.19211725 16.6248886,5.0094078 15.8004679,4.18275896 C14.9760472,3.35833828 14.7933378,2.13953258 15.2411988,1.13463062 C14.4056373,0.639978213 13.4987745,0.261190335 12.5362077,0.0160922953 C12.1395945,1.0432759 11.1502897,1.77634185 9.98495989,1.77634185 C8.81740196,1.77634185 7.82809715,1.0432759 7.43371212,0.0160922953 C6.47114528,0.261190334 5.56428253,0.639978213 4.7309492,1.13463062 C5.17881016,2.14176074 4.99610071,3.35833828 4.17168004,4.18275896 C3.34725936,5.00717964 2.12845365,5.18988909 1.12355169,4.74425629 C0.626671123,5.57758962 0.247883244,6.48445237 0.00278520492,7.44701921 C1.02996881,7.8436324 1.76303476,8.83293722 1.76303476,9.99826698 C1.76303476,11.1658249 1.02996881,12.1551297 0.00278520492,12.5495148 C0.247883244,13.5120816 0.626671123,14.4189443 1.12132353,15.2522777 C2.12845365,14.8044167 3.34503119,14.9871262 4.16945187,15.813775 C4.99387255,16.6381957 5.176582,17.8570014 4.72872103,18.8619033 C5.56428253,19.3565558 6.47114528,19.7353436 7.43371212,19.9804417 C7.83032531,18.9532581 8.81963012,18.2201921 9.98495989,18.2201921 C11.1525178,18.2201921 12.1418226,18.9532581 12.5362077,19.9804417 C13.4987745,19.7353436 14.4056373,19.3565558 15.2389706,18.8619033 C14.7911096,17.8547732 14.9738191,16.6381957 15.7982398,15.813775 C16.6226604,14.9893543 17.8414661,14.8066449 18.8463681,15.2522777 C19.3432487,14.4189443 19.7220365,13.5120816 19.9671346,12.5495148 C18.939951,12.1551297 18.206885,11.1658249 18.206885,9.99826698 Z M9.98495989,12.7389087 C8.47203654,12.7389087 7.24431818,11.5111903 7.24431818,9.99826698 C7.24431818,8.48534363 8.47203654,7.25762527 9.98495989,7.25762527 C11.4978832,7.25762527 12.7256016,8.48534363 12.7256016,9.99826698 C12.7256016,11.5111903 11.4978832,12.7389087 9.98495989,12.7389087 L9.98495989,12.7389087 Z" id="形状"></path>
                </g>
            </g>
        </g>
    </g>
</svg>