<?xml version="1.0" encoding="UTF-8"?>
<svg width="20px" height="20px" viewBox="0 0 20 20" version="1.1" xmlns="http://www.w3.org/2000/svg" xmlns:xlink="http://www.w3.org/1999/xlink">
    <title>编组</title>
    <g id="页面-1" stroke="none" stroke-width="1" fill="none" fill-rule="evenodd">
        <g id="-浏览器插件" transform="translate(-1654.000000, -164.000000)" fill="#9160F3">
            <g id="编组-2" transform="translate(1200.000000, 80.000000)">
                <g id="编组-3备份-6" transform="translate(424.000000, 66.000000)">
                    <g id="编组-8" transform="translate(30.000000, 16.000000)">
                        <g id="编组" transform="translate(0.000000, 2.000000)">
                            <circle id="椭圆形" fill-opacity="0.1" cx="10" cy="10" r="10"></circle>
                            <g transform="translate(3.333333, 5.833333)" fill-rule="nonzero" id="形状">
                                <path d="M10.936707,3.25584557 C10.8100785,3.25584557 10.643462,3.25584557 10.5168334,3.2966286 L9.80371482,1.46139206 L9.93034336,0.734094617 L10.7700905,0.734094617 C10.9833596,0.734094617 11.1899641,0.645731376 11.1899641,0.435019032 C11.1899641,0.224306688 11.0233476,0.00679717238 10.7700905,0.00679717238 L9.5571224,0.00679717238 C9.34385328,0.00679717238 9.17723679,0.135943448 9.17723679,0.346655791 L9.05060825,1.24388254 L4.9451777,1.75367047 L4.52530412,0.727297444 L5.1117942,0.727297444 C5.32506332,0.727297444 5.57165574,0.638934203 5.57165574,0.42822186 C5.57165574,0.217509516 5.40503924,0 5.15178216,0 L3.56559309,0 C3.35232397,0 3.14571951,0.169929309 3.14571951,0.42822186 C3.14571951,0.645731376 3.35898863,0.727297444 3.60558105,0.727297444 L3.64556901,0.727297444 L4.27204704,2.09352909 L3.43896455,3.46655791 C3.14571951,3.33741164 2.81248651,3.2490484 2.47258885,3.2490484 C1.09300424,3.2490484 0,4.4045677 0,5.77079935 C0,7.17781403 1.1329922,8.2925503 2.47258885,8.2925503 C3.68555697,8.2925503 4.73190858,7.39532355 4.9451777,6.19902121 L6.37141494,6.19902121 L6.37141494,6.11065797 C6.4114029,6.11065797 6.49804348,6.11065797 6.53803144,6.06987493 C6.57801939,6.0290919 6.62467201,6.0290919 6.66465997,5.98151169 L9.3905059,2.22267537 L9.85036744,3.50734095 C8.97063233,3.89477977 8.38414225,4.79200653 8.38414225,5.81158238 C8.38414225,7.21859706 9.51713444,8.33333333 10.8567311,8.33333333 C12.2363157,8.33333333 13.3293199,7.17781403 13.3293199,5.81158238 C13.4092959,4.4045677 12.2829683,3.25584557 10.936707,3.25584557 Z M4.9451777,5.51930397 C4.85853712,4.83278956 4.52530412,4.2822186 4.06544258,3.85399674 L4.69192062,2.82762371 L5.95154136,5.51930397 L4.9451777,5.51930397 Z M6.45805552,5.09108211 L5.32506332,2.44018488 L8.71737525,2.05274606 L6.45805552,5.09108211 L6.45805552,5.09108211 Z M7.17117413,6.58646003 L6.37141494,6.58646003 C6.15814582,6.58646003 5.95154136,6.71560631 5.95154136,6.97389886 C5.95154136,7.19140837 6.28477436,7.27297444 6.49804348,7.27297444 L7.17117413,7.27297444 C7.38444325,7.27297444 7.59104771,7.23219141 7.59104771,6.97389886 C7.58438305,6.71560631 7.41776655,6.58646003 7.17117413,6.58646003 Z"></path>
                            </g>
                        </g>
                    </g>
                </g>
            </g>
        </g>
    </g>
</svg>