<?xml version="1.0" encoding="UTF-8"?>
<svg width="20px" height="20px" viewBox="0 0 20 20" version="1.1" xmlns="http://www.w3.org/2000/svg" xmlns:xlink="http://www.w3.org/1999/xlink">
    <title>编组</title>
    <g id="页面-1" stroke="none" stroke-width="1" fill="none" fill-rule="evenodd">
        <g id="-浏览器插件" transform="translate(-1518.000000, -164.000000)" fill="#0060FF">
            <g id="编组-2" transform="translate(1200.000000, 80.000000)">
                <g id="编组-3备份-5" transform="translate(288.000000, 66.000000)">
                    <g id="编组-8" transform="translate(30.000000, 16.000000)">
                        <g id="编组" transform="translate(0.000000, 2.000000)">
                            <circle id="椭圆形" fill-opacity="0.1" cx="10" cy="10" r="10"></circle>
                            <g transform="translate(10.416667, 10.000000) scale(-1, 1) translate(-10.416667, -10.000000) translate(3.333333, 5.833333)" fill-rule="nonzero">
                                <path d="M9.75,6.66666665 C9.75,7.2621093 10.0676649,7.81232101 10.5833333,8.11004234 C11.0990018,8.40776367 11.7343315,8.40776367 12.25,8.11004234 C12.7656685,7.81232101 13.0833333,7.2621093 13.0833333,6.66666665 C13.0833333,5.74619208 12.3371412,5 11.4166667,5 C10.4961921,5 9.75,5.74619208 9.75,6.66666665 Z" id="路径备份"></path>
                                <path d="M2,6.66666665 C2,7.2621093 2.31766486,7.81232101 2.83333332,8.11004234 C3.34900179,8.40776367 3.98433154,8.40776367 4.5,8.11004234 C5.01566848,7.81232101 5.33333333,7.2621093 5.33333333,6.66666665 C5.33333333,5.74619208 4.58714125,5 3.66666667,5 C2.74619208,5 2,5.74619208 2,6.66666665 Z" id="路径备份-2"></path>
                                <path d="M12.7672065,2.17812644 L11.4308367,2.15351484 C10.4873482,0.624519305 9.25995277,0 7.59665992,0 C5.62651822,0 4.05499325,0.756806645 3.13157895,1.85817567 L1.95867072,2.1258268 C0.771423752,2.41501307 0,3.06106753 0.00573549258,4.05783726 L0,4.81156745 C0,5.72834948 0.659581646,6.49130903 1.75792848,6.65436087 C1.82101889,5.5622212 2.6641363,4.69773881 3.69652497,4.69773881 C4.73464912,4.69773881 5.58063428,5.5683741 5.6379892,6.66666667 L9.48650472,6.65743732 C9.5467274,5.5622212 10.3927126,4.69466236 11.427969,4.69466236 C12.4374157,4.69466236 13.2661943,5.5191509 13.3636977,6.57744962 C13.7909919,6.43900938 14.1666667,6.09752346 14.1666667,5.5437625 L14.1666667,3.53176434 C14.1666667,2.71035225 13.6820175,2.25811414 12.7672065,2.17812644 L12.7672065,2.17812644 Z M7.30827748,2.45949861 C7.19169329,2.46735448 7.0751091,2.47521035 6.95568139,2.48306622 C5.45430451,2.59042979 3.70554166,2.15573827 3.7282898,2.06408644 C3.83634344,1.6608184 5.26378888,0.948552773 6.99549063,0.849045075 C7.15757108,0.838570581 7.30827748,0.835951957 7.45614035,0.833333333 L7.30827748,2.45949861 Z M8.20175439,2.5 L8.33976576,0.833333333 C9.48610517,0.939065109 10.1141978,1.42042293 10.438102,2.26627713 C10.4634511,2.34140234 9.5114542,2.40539789 8.20175439,2.5 Z" id="形状"></path>
                            </g>
                        </g>
                    </g>
                </g>
            </g>
        </g>
    </g>
</svg>