<?xml version="1.0" encoding="UTF-8"?>
<svg width="34px" height="26px" viewBox="0 0 34 26" version="1.1" xmlns="http://www.w3.org/2000/svg" xmlns:xlink="http://www.w3.org/1999/xlink">
    <title>ch</title>
    <g id="页面-1" stroke="none" stroke-width="1" fill="none" fill-rule="evenodd">
        <g id="-浏览器插件" transform="translate(-1814.000000, -121.000000)">
            <g id="ch" transform="translate(1814.000000, 121.000000)">
                <rect id="矩形" x="0" y="0" width="34" height="26"></rect>
                <path d="M13,1 C19.6274211,1 25,6.37257791 25,13 C25,13.4418198 24.6418272,13.7999917 24.2000069,13.7999917 C23.7581632,13.7999917 23.3999913,13.4418198 23.3999913,13 C23.3999913,12.1739683 23.3036866,11.3703902 23.1216944,10.5999762 L19.1560696,10.5999762 C19.2819964,11.3937783 19.3451607,12.1962711 19.3449758,13 C19.3449758,13.4418198 18.9867805,13.7999917 18.5449603,13.7999917 C18.10314,13.7999917 17.7449681,13.4418198 17.7449681,13 C17.7449681,12.1859214 17.6730853,11.3834684 17.5335618,10.5999762 L8.66654657,10.5999762 C8.52697626,11.3832574 8.4549997,12.1856871 8.45499972,13 C8.45499972,13.8142886 8.52695284,14.6167182 8.66654657,15.3999994 L12.4549839,15.3999994 C12.8968277,15.3999994 13.2549995,15.7581713 13.2549995,16.1999916 C13.2549995,16.6418353 12.8968277,17 12.4549839,17 L9.05314813,17 C9.81528873,19.4823665 11.2786793,21.7014992 13.2864292,23.3961944 C13.6950489,23.3851981 14.1026751,23.3503025 14.5072182,23.2916866 C14.9444682,23.2282413 15.3503588,23.5312882 15.4137807,23.9685616 C15.477226,24.4057881 15.1741791,24.8116788 14.7369057,24.8751241 C14.16169,24.9584337 13.5812168,25 13,25 C6.37257791,25 1,19.6274211 1,13 C1,6.37257791 6.37257791,1 13,1 Z M7.38765599,17.0000072 L3.39711709,17.0001009 C4.68367173,20.0851086 7.41350755,22.4177257 10.7431793,23.1544366 L10.7431793,23.1541554 C9.16063251,21.3934133 8.01024974,19.2888899 7.38763255,17.0000072 L7.38765599,17.0000072 Z M2.89862493,10.5164215 L2.8874218,10.5616559 C2.69952337,11.3437887 2.60000774,12.1602808 2.60000774,12.9999995 C2.60000774,13.8559839 2.70341399,14.6878041 2.89841399,15.4836713 C3.00917638,15.4284826 3.13126549,15.399836 3.25501553,15.3999994 L7.04401539,15.3999994 C6.91803313,14.6062105 6.85483728,13.8037236 6.85501539,12.9999995 C6.85501539,12.1875621 6.91918727,11.3856246 7.04401539,10.5999762 L3.25501553,10.5999996 C3.13134184,10.60018 3.00932437,10.5715654 2.89862493,10.5164215 L2.89862493,10.5164215 Z M10.7429449,2.84586712 L10.661359,2.8639843 C7.36881224,3.62057022 4.67310142,5.9401795 3.39709366,8.99992157 L7.38763255,9.00001532 C8.01017941,6.71120291 9.16049186,4.60672642 10.7429449,2.84586712 Z M13.099773,2.76395305 C11.187859,4.43743736 9.79147621,6.59523416 9.0531247,8.99996845 L17.1470306,8.99996845 C16.4334291,6.67560135 15.1037494,4.5793983 13.2805464,2.9251093 C13.2207573,2.87085828 13.1604894,2.81713743 13.0997495,2.76395305 L13.099773,2.76395305 Z M15.5092416,2.90471868 L15.5092416,2.90499993 C17.0674134,4.65676548 18.1977806,6.73956229 18.8125227,8.99999188 L22.6029288,8.99999188 C21.3490461,5.99321856 18.7242102,3.7011952 15.5092416,2.90471868 L15.5092416,2.90471868 Z" id="形状" fill="#262626" fill-rule="nonzero"></path>
                <path d="M23.1464844,25 L23.1464844,23.5712891 L18.6142578,23.5712891 L23.1464844,16.1679688 L23.1464844,15.0332031 L16.9599609,15.0332031 L16.9599609,16.3798828 L21.3007812,16.3798828 L16.7822266,23.7421875 L16.7822266,25 L23.1464844,25 Z M26.1611328,25 L26.1611328,20.6455078 L30.1054688,20.6455078 L30.1054688,25 L31.6162109,25 L31.6162109,15.0332031 L30.1054688,15.0332031 L30.1054688,19.3056641 L26.1611328,19.3056641 L26.1611328,15.0332031 L24.6503906,15.0332031 L24.6503906,25 L26.1611328,25 Z" id="ZH" fill="#262626" fill-rule="nonzero"></path>
            </g>
        </g>
    </g>
</svg>