<?xml version="1.0" encoding="UTF-8"?>
<svg width="32px" height="32px" viewBox="0 0 32 32" version="1.1" xmlns="http://www.w3.org/2000/svg" xmlns:xlink="http://www.w3.org/1999/xlink">
    <title>icon_dark_Source code</title>
    <g id="页面-1" stroke="none" stroke-width="1" fill="none" fill-rule="evenodd">
        <g id="-浏览器插件" transform="translate(-1015.000000, -732.000000)">
            <g id="编组-2备份-3" transform="translate(553.000000, 434.000000)">
                <g id="编组-3备份-3" transform="translate(32.000000, 258.000000)">
                    <g id="Source-code" transform="translate(405.000000, 40.000000)">
                        <g id="icon_dark_Source-code" transform="translate(25.000000, 0.000000)">
                            <circle id="椭圆形" stroke="#1DA1F1" opacity="0" cx="16" cy="16" r="15.5"></circle>
                            <path d="M0,15.9045413 C0,19.3423581 0.994635584,22.4329475 2.98390675,25.1763094 C4.97317792,27.9196713 7.55109736,29.840356 10.7176651,30.9383634 C10.8429945,30.9589055 10.9473246,30.9691765 11.0306553,30.9691765 C11.113986,30.9691765 11.1816506,30.9536043 11.2336489,30.9224599 C11.2856473,30.8913154 11.3273127,30.860171 11.358645,30.8290265 C11.3899774,30.7978821 11.4109767,30.7461955 11.4216431,30.6739669 C11.4323094,30.6017383 11.4376426,30.5500518 11.4376426,30.5189073 L11.4376426,27.3968422 C10.667,27.4796732 9.97935481,27.474372 9.37470704,27.3809387 C8.77005927,27.2875053 8.29607408,27.1423854 7.95275148,26.945579 C7.60942887,26.7487726 7.30743831,26.5055809 7.04677979,26.2160038 C6.78612127,25.9264267 6.6091268,25.6623616 6.51579638,25.4238084 C6.42246596,25.1852552 6.32880222,24.9367622 6.23480516,24.6783296 C6.1408081,24.4198969 6.08347656,24.2698072 6.06281054,24.2280604 C5.87548306,23.9172786 5.59415852,23.6326713 5.21883691,23.3742387 C4.84351531,23.1158061 4.56219076,22.9087286 4.37486329,22.7530064 C4.18753581,22.5972841 4.16653646,22.4471944 4.31186525,22.3027372 C5.35383269,21.7640045 6.53079591,22.4475257 7.84275491,24.3533008 C8.55139944,25.4095614 9.79102736,25.7203433 11.5616387,25.2856463 C11.7702988,24.4367945 12.1869525,23.7118578 12.8115996,23.1108362 C10.3950085,22.6761392 8.60339781,21.7855406 7.4367676,20.4390402 C6.27013739,19.0925399 5.68682229,17.4564625 5.68682229,15.5308079 C5.68682229,13.7290686 6.25980438,12.1655511 7.40576857,10.8402555 C6.94711624,9.49441776 7.00978094,8.07602013 7.59376269,6.58506257 C8.19774382,6.54331576 8.87472266,6.66226104 9.62469923,6.94189841 C10.3746758,7.22153579 10.9006594,7.45975767 11.2026499,7.65656407 C11.5046405,7.85337047 11.7702988,8.03460464 11.999625,8.2002666 C13.1869212,7.86894269 14.5255461,7.70328074 16.0154995,7.70328074 C17.505453,7.70328074 18.8544108,7.86894269 20.0623731,8.2002666 C20.3330313,8.01406256 20.6350218,7.81725616 20.9683447,7.6098474 C21.3016677,7.40243864 21.811985,7.17978897 22.4992969,6.94189841 C23.1866088,6.70400785 23.8219222,6.60560465 24.4052373,6.64668882 C24.9678864,8.1171043 25.0408841,9.51495984 24.6242305,10.8402555 C25.7908607,12.1655511 26.3741758,13.7290686 26.3741758,15.5308079 C26.3741758,17.4564625 25.7805277,19.0975098 24.5932315,20.4539498 C23.4059352,21.8103899 21.6143246,22.6956873 19.2183994,23.1098422 C20.1143714,24.0004409 20.5623574,25.0772436 20.5623574,26.3402503 L20.5623574,30.3469502 C20.5623574,30.3674923 20.5726904,30.3986368 20.5933565,30.4403836 C20.5933565,30.5649614 20.5986896,30.6580634 20.609356,30.7196896 C20.6200223,30.7813159 20.6670208,30.8436048 20.7503516,30.9065563 C20.8336823,30.9695078 20.9586784,31.0006523 21.1253398,31 C24.3125736,29.923187 26.9218254,28.0025023 28.9530952,25.2379357 C30.9843651,22.473369 32,19.3619062 32,15.9035473 C32,13.749942 31.5780132,11.6894386 30.7340396,9.72203728 C29.8900659,7.75463595 28.7547681,6.06190213 27.328146,4.64383582 C25.9015239,3.22576952 24.1985771,2.09728031 22.2193056,1.25836818 C20.2400342,0.419456061 18.1670989,0 16.0005,0 C13.833901,0 11.7609658,0.419456061 9.78169432,1.25836818 C7.80242284,2.09728031 6.09947606,3.22576952 4.67285397,4.64383582 C3.24623189,6.06190213 2.11093403,7.75463595 1.26696041,9.72203728 C0.422986782,11.6894386 0.000999968751,13.749942 0.000999968751,15.9035473 L0,15.9045413 Z" id="路径" fill-opacity="0.65" fill="#FFFFFF" fill-rule="nonzero"></path>
                        </g>
                    </g>
                </g>
            </g>
        </g>
    </g>
</svg>